<svg xmlns="http://www.w3.org/2000/svg" height="512" width="512"><g stroke="#000" stroke-width="8"><path d="M144 312v112l28 28h168l28-28V312" fill="#fcbcb0"/><path d="M200 32h112v28h28v28h28v28h28v28h28v28h28v56h28v84h-28v28H340v-28H172v28H60v-28H32v-84h28v-56h28v-28h28v-28h28V88h28V60h28z" fill="#c84c0c"/><path d="M144 172h28v56h56v56h-84zM340 172h28v112h-84v-56h56z" fill="#fcbcb0"/><path d="M172 144h-56v28h84v28h112v-28h84v-28h-56v112h-28v-28H200v28h-28zM116 396h56v28h28v28h28v28h-84v-28h-28zM284 424h28v-28h56v-28h56v28h28v56h-28v28H284z"/></g></svg>